<svg width="32" height="32" viewBox="0 0 32 32" fill="none" xmlns="http://www.w3.org/2000/svg">
<rect width="32" height="32" fill="white"/>
<path d="M21.5668 27V13.2C21.5668 11.82 21.0126 10.624 19.9043 9.612C18.8296 8.63066 17.5197 8.14 15.9748 8.14C14.4635 8.14 13.1537 8.646 12.0453 9.658C11.5416 10.118 11.1385 10.67 10.8363 11.314C10.534 11.9273 10.3829 12.556 10.3829 13.2V27H6V4.552H10.3829V6.438C11.021 5.73267 11.8606 5.15 12.9018 4.69C13.9429 4.23 14.9673 4 15.9748 4C17.3182 4 18.5945 4.24533 19.8035 4.736C21.0462 5.196 22.1377 5.85533 23.0781 6.714C23.9849 7.542 24.6902 8.52333 25.194 9.658C25.7313 10.762 26 11.9427 26 13.2V27H21.5668Z" fill="#262626"/>
</svg>
